<svg width="42" height="42" viewBox="0 0 42 42" fill="none" xmlns="http://www.w3.org/2000/svg">
<path d="M17.5 28C18.375 28.525 19.6 28.875 21 28.875C22.4 28.875 23.625 28.525 24.5 28" stroke="#1340AD" stroke-width="2" stroke-linecap="round" stroke-linejoin="round"/>
<path d="M26.25 21H26.2675" stroke="#1340AD" stroke-width="2" stroke-linecap="round" stroke-linejoin="round"/>
<path d="M33.915 11.9228C35.1419 13.7067 35.9879 15.7244 36.4 17.85C36.9917 18.1366 37.4908 18.5841 37.84 19.1412C38.1892 19.6983 38.3744 20.3425 38.3744 21C38.3744 21.6575 38.1892 22.3017 37.84 22.8588C37.4908 23.4159 36.9917 23.8634 36.4 24.15C35.6445 27.6736 33.7035 30.8315 30.9009 33.0969C28.0984 35.3623 24.6037 36.5981 21 36.5981C17.3963 36.5981 13.9016 35.3623 11.099 33.0969C8.29646 30.8315 6.35548 27.6736 5.6 24.15C5.00825 23.8634 4.50919 23.4159 4.16 22.8588C3.81081 22.3017 3.62561 21.6575 3.62561 21C3.62561 20.3425 3.81081 19.6983 4.16 19.1412C4.50919 18.5841 5.00825 18.1366 5.6 17.85C6.32496 14.2984 8.25281 11.1055 11.0583 8.81014C13.8638 6.51475 17.3752 5.25732 21 5.25C24.5 5.25 27.125 7.175 27.125 9.625C27.125 12.075 25.55 14 23.625 14C22.225 14 21 13.3 21 12.25" stroke="#1340AD" stroke-width="2" stroke-linecap="round" stroke-linejoin="round"/>
<path d="M15.75 21H15.7675" stroke="#1340AD" stroke-width="2" stroke-linecap="round" stroke-linejoin="round"/>
</svg>
