<svg width="46" height="31" viewBox="0 0 46 31" fill="none" xmlns="http://www.w3.org/2000/svg">
<path d="M21.908 26.7047C21.908 27.0192 21.6526 27.2743 21.3374 27.2743C21.0223 27.2743 20.7668 27.0192 20.7668 26.7047C20.7668 26.3899 21.0223 26.1348 21.3374 26.1348C21.6526 26.1348 21.908 26.3899 21.908 26.7047Z" fill="#1340AD"/>
<path d="M21.908 28.7304C21.908 29.0451 21.6526 29.3003 21.3374 29.3003C21.0223 29.3003 20.7668 29.0451 20.7668 28.7304C20.7668 28.4156 21.0223 28.1604 21.3374 28.1604C21.6526 28.1604 21.908 28.4156 21.908 28.7304Z" fill="#1340AD"/>
<path d="M17.3815 12.4122C18.2807 15.5753 21.3211 17.8431 22.999 17.8431C24.677 17.8431 27.7173 15.5753 28.6166 12.4122C29.3793 12.109 29.891 11.3675 29.891 10.5383V9.7441C29.891 9.17269 29.6388 8.64382 29.2207 8.26435C29.2924 7.95683 29.3673 7.62278 29.4332 7.24763L29.4536 7.13058C29.6428 6.05096 30.0005 4.04089 28.7174 2.51274C27.669 1.26599 25.7461 0.634521 22.9991 0.634521C20.252 0.634521 18.3291 1.26737 17.2847 2.51274C16.0013 4.04089 16.3564 6.05096 16.5486 7.13058L16.569 7.24618C16.6348 7.6213 16.7069 7.95536 16.7815 8.26429C16.3633 8.64232 16.1082 9.17121 16.1082 9.74265V10.5369C16.1068 11.3678 16.6217 12.1091 17.3815 12.4122ZM17.8859 3.01738C18.7734 1.95674 20.4954 1.41907 22.999 1.41907C25.5027 1.41907 27.2246 1.95667 28.1119 3.01738C29.1606 4.26412 28.86 5.97401 28.6795 6.99361L28.6563 7.11357C28.4728 8.15969 28.2294 8.95354 28.0726 9.40355V9.22762C28.0726 6.11577 27.0664 5.65301 26.4711 5.65301C26.1439 5.65301 25.8037 5.79223 25.4518 6.06486C24.5865 6.74023 23.8914 6.82674 23.3809 6.82674L22.9992 6.81765L22.6178 6.82347C22.1073 6.82347 21.4123 6.73696 20.5498 6.06158C20.1979 5.78751 19.8533 5.64974 19.5305 5.64974C18.9323 5.64974 17.9291 6.11284 17.9291 9.22435C17.9291 9.28578 17.9291 9.34284 17.9262 9.39738C17.7766 8.96954 17.5288 8.16952 17.3425 7.11027L17.3221 6.99323C17.1412 5.97363 16.8377 4.26412 17.8861 3.01728L17.8859 3.01738ZM26.1846 8.58615H24.6726C24.312 8.58615 23.9849 8.7399 23.7265 8.98454H22.2717C22.0137 8.7399 21.688 8.58615 21.3241 8.58615H19.815C19.3794 8.58615 18.9922 8.80315 18.7149 9.14448C18.7294 7.28664 19.1446 6.43426 19.5318 6.43426C19.6756 6.43426 19.859 6.52077 20.0671 6.68034C21.1188 7.50366 21.9841 7.60907 22.6192 7.60907L22.9991 7.60144L23.3805 7.60871C24.0169 7.60871 24.8808 7.5033 25.9354 6.67998C26.1421 6.5204 26.3285 6.43389 26.4707 6.43389C26.8579 6.43389 27.2731 7.28665 27.2848 9.1456C27.009 8.80428 26.6202 8.58615 26.1846 8.58615ZM26.8975 10.3073C26.8975 10.826 26.5791 11.2466 26.1846 11.2466H24.6726C24.2884 11.2466 23.9627 10.8158 23.9627 10.3073C23.9627 9.79004 24.2811 9.36948 24.6726 9.36948H26.1846C26.5791 9.36985 26.8975 9.79187 26.8975 10.3073ZM22.0397 10.3073C22.0397 10.826 21.7184 11.2466 21.3239 11.2466H19.8149C19.4277 11.2466 19.102 10.8158 19.102 10.3073C19.102 9.79004 19.4233 9.36948 19.8149 9.36948H21.3239C21.7184 9.36985 22.0397 9.79187 22.0397 10.3073ZM16.8916 9.74351C16.8916 9.54577 16.94 9.35529 17.0295 9.18518C17.1893 9.70389 17.3156 9.99832 17.3185 9.99832C17.559 11.0048 17.7217 11.4239 18.1238 11.4239C18.3101 11.4239 18.4393 11.3505 18.527 11.1793C18.7879 11.6864 19.2661 12.0306 19.8134 12.0306H21.3225C22.1496 12.0306 22.8228 11.2585 22.8228 10.3076C22.8228 10.1186 22.789 9.93973 22.7391 9.76998H23.2555C23.2071 9.94009 23.1718 10.1186 23.1718 10.3076C23.1718 11.257 23.845 12.0306 24.6692 12.0306H26.1812C26.731 12.0306 27.2063 11.6864 27.4676 11.1793C27.5571 11.3509 27.6848 11.4239 27.8708 11.4239C28.2711 11.4239 28.4385 11.0048 28.6554 10.063C28.667 10.0397 28.7991 9.72603 28.9647 9.18697C29.0542 9.35563 29.1026 9.54719 29.1026 9.74384V10.5381C29.1026 11.0935 28.7241 11.5828 28.1859 11.7293C28.048 11.766 27.9425 11.8758 27.9086 12.0121C27.1637 14.9775 24.2758 17.0592 22.9953 17.0592C21.7147 17.0592 18.8268 14.9775 18.0848 12.0121C18.051 11.8743 17.944 11.766 17.8075 11.7293C17.2664 11.5828 16.8879 11.0935 16.8879 10.5381L16.8887 9.74348L16.8916 9.74351Z" fill="#1340AD"/>
<path d="M26.6834 17.3161C26.5691 17.2896 26.4399 17.3161 26.346 17.3939C26.2521 17.4688 26.1965 17.5858 26.1994 17.7058C26.2303 19.3906 25.3941 21.2089 24.5317 22.6297L24.0932 21.0358C24.2398 20.9642 24.369 20.8642 24.4745 20.7355C24.8748 20.2433 24.8235 19.5356 24.7988 19.3306C24.7151 18.6639 23.6681 18.4367 23.0492 18.3622C23.0153 18.3579 22.9862 18.3579 22.9524 18.3622C22.3363 18.4371 21.2846 18.664 21.2028 19.3306C21.1762 19.5356 21.1249 20.2433 21.527 20.7355C21.6325 20.8646 21.7617 20.9642 21.9084 21.0358L21.4699 22.6297C20.6074 21.207 19.7716 19.3906 19.8021 17.7058C19.8051 17.5858 19.7508 17.4684 19.6555 17.3939C19.5616 17.3161 19.4353 17.2914 19.3196 17.3161C18.7403 17.4554 13.6657 18.724 12.8852 20.7999C12.1461 22.7617 11.6254 27.5715 11.6017 27.775C11.5872 27.9084 11.6414 28.0386 11.7455 28.1222C11.8863 28.2334 15.2408 30.856 23.0009 30.856C30.761 30.856 34.1156 28.2334 34.2563 28.1222C34.3589 28.0371 34.4131 27.9084 34.4 27.775C34.3796 27.5715 33.856 22.7617 33.1166 20.7999C32.3349 18.7243 27.2585 17.4554 26.6835 17.3161H26.6834ZM26.921 18.62C27.4403 19.2103 28.1532 20.1438 28.4712 21.1107H27.1277C27.0014 21.1107 26.8814 21.1707 26.8093 21.2732C26.7343 21.3757 26.7154 21.5077 26.7551 21.6276L27.3286 23.3095L24.2147 24.5211C25.1903 23.1972 26.6262 20.91 26.921 18.62ZM21.7845 24.5229L18.6706 23.3113L19.2441 21.6294C19.2838 21.5095 19.2645 21.3775 19.1899 21.275C19.1182 21.1725 18.9978 21.1125 18.8715 21.1125L17.5283 21.1122C17.8467 20.1452 18.5592 19.2118 19.0786 18.6214C19.3719 20.91 20.8078 23.1972 21.7845 24.5229ZM22.6058 30.0636C19.5611 30.0269 17.2317 29.5685 15.5673 29.0484V26.4832H14.7827V28.7791C13.5083 28.3116 12.7263 27.8445 12.4083 27.6319C12.5196 26.6443 13.0007 22.7138 13.6168 21.0759C14.0349 19.9698 16.4505 18.9927 18.1972 18.4446C17.5753 19.2094 16.8421 20.3024 16.6368 21.4304C16.6164 21.5445 16.6456 21.6634 16.7234 21.7542C16.7984 21.8437 16.9068 21.8949 17.024 21.8949H18.3221L17.8057 23.4143C17.7398 23.6121 17.8396 23.8291 18.0346 23.9065L22.6062 25.6836L22.6058 30.0636ZM22.04 23.5149L22.7645 20.869C22.7954 20.7563 22.7761 20.636 22.7074 20.5378C22.6386 20.444 22.5327 20.3841 22.4155 20.3739C22.2892 20.3637 22.203 20.3226 22.1353 20.2376C21.9828 20.0515 21.949 19.6883 21.9636 19.4757C22.0502 19.3645 22.5443 19.2074 23.0007 19.146C23.4566 19.206 23.9483 19.3612 24.0199 19.4259C24.0509 19.6865 24.017 20.05 23.866 20.2361C23.8001 20.3212 23.7121 20.3623 23.5858 20.3724C23.4686 20.3826 23.3627 20.4426 23.294 20.5364C23.2252 20.6331 23.2044 20.7534 23.2368 20.8675L23.9613 23.5134C23.58 24.0689 23.2339 24.5199 23.0021 24.8042C22.7674 24.5199 22.4199 24.0703 22.04 23.5149ZM31.2153 28.7849V26.4832H30.4308V29.0514C28.7688 29.5715 26.4427 30.027 23.3922 30.0637V25.6832L27.9638 23.9061C28.1589 23.8283 28.2586 23.6117 28.1927 23.4139L27.6763 21.8945H28.9744C29.0916 21.8945 29.2004 21.8433 29.2779 21.7538C29.3529 21.663 29.3805 21.5445 29.3616 21.43C29.1549 20.3006 28.4213 19.209 27.8012 18.4442C29.5479 18.992 31.9635 19.968 32.3816 21.0755C32.9977 22.712 33.4787 26.6457 33.593 27.6315C33.2717 27.8471 32.4929 28.3159 31.2153 28.7849Z" fill="#1340AD"/>
<path d="M26.2623 26.2922H29.4991V27.0759H26.2623V26.2922Z" fill="#1340AD"/>
<path d="M32.6641 13.0348C33.3828 15.5018 35.766 17.2644 37.0876 17.2644C38.4046 17.2644 40.7852 15.5018 41.5083 13.0348C42.1065 12.7741 42.5116 12.1791 42.5116 11.5182V10.9058C42.5116 10.4532 42.3195 10.0341 41.9952 9.72619C42.0553 9.47719 42.1153 9.20603 42.167 8.89705C42.3195 8.0472 42.5997 6.46488 41.5804 5.25191C40.7532 4.26432 39.2423 3.76489 37.088 3.76489C34.9305 3.76489 33.4214 4.26434 32.5942 5.25051C31.575 6.46497 31.8552 8.04579 32.0178 8.98648C32.0662 9.2591 32.1204 9.50373 32.1717 9.73055C31.8533 10.0366 31.6612 10.4543 31.6612 10.9069V11.5193C31.6612 12.1805 32.0629 12.7756 32.6641 13.0348ZM33.1936 5.75647C33.8639 4.95641 35.1736 4.55225 37.0862 4.55225C38.9975 4.55225 40.3057 4.95646 40.9759 5.75647C41.7605 6.69102 41.5287 7.98616 41.3762 8.85203C41.2896 9.34421 41.187 9.76477 41.0902 10.0959C41.0036 7.9789 40.2365 7.64772 39.7732 7.64772C39.4974 7.64772 39.2143 7.76186 38.9283 7.98758C38.2845 8.48847 37.7827 8.55754 37.3751 8.55754L37.0862 8.55172L36.7914 8.55754C36.3882 8.55754 35.8864 8.48884 35.2412 7.98758C34.9522 7.76185 34.6677 7.64772 34.3962 7.64772C33.9297 7.64772 33.164 7.97741 33.0792 10.0944C32.9853 9.76617 32.8784 9.3456 32.7932 8.85194L32.7757 8.75961C32.6378 7.98464 32.4089 6.68802 33.1935 5.75645L33.1936 5.75647ZM39.5505 9.91993H38.3817C38.0898 9.91993 37.8256 10.0384 37.6146 10.2274H36.557C36.3445 10.0384 36.0818 9.91993 35.7899 9.91993H34.6211C34.3351 9.91993 34.0741 10.0326 33.8642 10.2173C33.9038 8.93087 34.2015 8.43145 34.3965 8.43145C34.4479 8.43145 34.5621 8.45326 34.7572 8.60448C35.6051 9.26385 36.3237 9.33982 36.7914 9.33982L37.0861 9.33401L37.3751 9.33982C37.8445 9.33982 38.5647 9.26349 39.4122 8.60448C39.6043 8.45218 39.7186 8.43145 39.7728 8.43145C39.9679 8.43145 40.2655 8.92944 40.3052 10.2159C40.0945 10.0345 39.8347 9.91998 39.5504 9.91998L39.5505 9.91993ZM40.0152 11.3412C40.0152 11.6868 39.8027 11.9798 39.5516 11.9798H38.3828C38.1306 11.9798 37.9192 11.6883 37.9192 11.3412C37.9192 10.9969 38.1317 10.7039 38.3828 10.7039H39.5516C39.8027 10.7054 40.0152 10.9969 40.0152 11.3412ZM36.2532 11.3412C36.2532 11.6868 36.0407 11.9798 35.7896 11.9798H34.6208C34.3686 11.9798 34.1542 11.6883 34.1542 11.3412C34.1542 10.9969 34.3682 10.7039 34.6208 10.7039H35.7896C36.0422 10.7054 36.2532 10.9969 36.2532 11.3412ZM32.4457 10.906C32.4457 10.8577 32.4574 10.8094 32.4632 10.7596C32.544 10.9911 32.5982 11.1198 32.6011 11.1198C32.7758 11.8493 32.9104 12.2917 33.3111 12.2917C33.4403 12.2917 33.54 12.2536 33.6146 12.179C33.8406 12.5305 34.2041 12.7621 34.6208 12.7621H35.7897C36.4803 12.7621 37.0393 12.1234 37.0393 11.3394C37.0393 11.2267 37.0247 11.118 37.0025 11.0097H37.1714C37.1481 11.1165 37.1346 11.2249 37.1346 11.3394C37.1346 12.1231 37.6965 12.7621 38.3842 12.7621H39.5531C39.9712 12.7621 40.3406 12.5247 40.5666 12.1645C40.6383 12.2361 40.7263 12.2921 40.8613 12.2921C41.2616 12.2921 41.3966 11.8497 41.5491 11.1859C41.5549 11.1714 41.6179 11.0206 41.7089 10.7566C41.7147 10.805 41.7263 10.8533 41.7263 10.906V11.5185C41.7263 11.9082 41.4592 12.251 41.0797 12.3564C40.9447 12.3931 40.8391 12.5029 40.8038 12.6392C40.2361 14.8954 38.0538 16.4792 37.0888 16.4792C36.1208 16.4792 33.9385 14.8954 33.3708 12.6392C33.337 12.5014 33.2329 12.3931 33.095 12.3564C32.7136 12.251 32.4483 11.9068 32.4483 11.5185L32.4487 10.906H32.4457Z" fill="#1340AD"/>
<path d="M44.9992 19.4315C44.3773 17.7834 40.4072 16.7899 39.9566 16.6831C39.782 16.6435 39.6077 16.7183 39.5211 16.8721C38.9108 17.955 37.5764 18.8251 37.0862 19.1182C36.5934 18.8252 35.2587 17.955 34.6455 16.8721C34.5589 16.7198 34.3784 16.6449 34.2128 16.6831C33.9355 16.7489 32.3224 17.1534 30.9789 17.8375C31.2736 17.9826 31.5655 18.1378 31.8442 18.3035C32.5953 17.9738 33.4283 17.6968 34.1218 17.514C35.0501 18.9131 36.8205 19.8713 36.9013 19.9153C37.0156 19.9782 37.1564 19.9782 37.271 19.9153C37.3518 19.8728 39.1218 18.9117 40.0505 17.514C41.6094 17.9229 43.9301 18.812 44.2644 19.7088C44.728 20.9396 45.0945 23.8697 45.1927 24.7076C44.5428 25.134 42.0101 26.5506 37.0895 26.5506C36.4017 26.5506 35.7696 26.5211 35.1753 26.4728C35.215 26.7923 35.247 27.0602 35.2692 27.2652C35.8398 27.3063 36.441 27.3339 37.0879 27.3339C43.1232 27.3339 45.7444 25.2885 45.8543 25.1994C45.9569 25.1158 46.0112 24.9857 45.9981 24.8537C45.9788 24.6941 45.5757 20.9626 44.9992 19.4315Z" fill="#1340AD"/>
<path d="M1.81567 16.6341C2.26582 16.8057 3.01257 16.9227 3.82072 16.9227C4.81528 16.9227 5.87132 16.7279 6.58529 16.2561C7.33019 16.8508 8.10926 17.2114 8.68573 17.2114C9.26506 17.2114 10.0438 16.8512 10.7891 16.2561C11.5019 16.7279 12.5594 16.9227 13.5507 16.9227C14.359 16.9227 15.1068 16.8057 15.5558 16.6341C15.6966 16.58 16.1235 16.4171 16.1602 16.0245C16.1748 15.8926 16.1457 15.6436 15.8229 15.4444L15.6133 15.3154C14.8651 14.8672 14.5529 14.6811 14.4386 10.1512C14.3932 8.32285 13.7199 6.94554 12.4558 6.03863C12.6053 5.36471 12.5879 4.83292 12.585 4.79039C12.5791 4.68643 12.5336 4.58684 12.4529 4.51777C10.9136 3.13944 8.81055 2.92272 8.64752 2.91406C8.55837 2.92279 6.45644 3.13943 4.91793 4.51963C4.83714 4.58833 4.79165 4.68648 4.78583 4.79225C4.78292 4.83333 4.76545 5.36512 4.91501 6.04198C3.65225 6.94599 2.97909 8.32433 2.93214 10.1513C2.81497 14.6826 2.50529 14.8687 1.75452 15.3154L1.54783 15.4445C1.22068 15.6451 1.19594 15.8941 1.20758 16.0246C1.24543 16.4176 1.67519 16.5801 1.81566 16.6342L1.81567 16.6341ZM8.68424 16.4291C7.78505 16.4291 5.69367 14.8966 5.15549 12.7927C5.38438 10.8149 6.19551 10.0941 6.63988 9.84222C6.94629 10.4093 7.77054 11.322 9.9062 11.322C10.8538 11.322 11.7337 11.628 12.0943 12.0853C12.2468 12.2787 12.2923 12.4837 12.2351 12.7182C11.726 14.8599 9.59793 16.4291 8.68424 16.4291ZM8.64748 3.69456C8.70207 3.70037 10.4779 3.89812 11.7981 4.99119C11.7865 5.4103 11.6926 6.55897 10.9753 7.3866H6.39342C5.682 6.56474 5.5823 5.4117 5.57029 4.99119C6.89202 3.89816 8.66537 3.70042 8.64748 3.69456ZM3.7181 10.1702C3.75486 8.70975 4.24176 7.58872 5.16131 6.82827C5.33308 7.25175 5.57361 7.68104 5.94006 8.05287C6.01175 8.12775 6.11473 8.16992 6.22026 8.16992L11.1482 8.17028C11.2537 8.17028 11.3549 8.12775 11.4284 8.05324C11.7952 7.68102 12.0357 7.25173 12.2071 6.82864C13.1267 7.58907 13.6136 8.70974 13.6503 10.1706C13.7675 14.8136 14.1063 15.3203 15.1434 15.9501C14.3792 16.1701 12.4272 16.2769 11.377 15.7215C12.1044 14.9803 12.735 14.0145 12.9977 12.8997C13.112 12.4337 13.0123 11.9841 12.7088 11.5988C12.1924 10.9423 11.119 10.5352 9.90454 10.5352C7.56068 10.5352 7.2514 9.30148 7.24115 9.25607C7.22077 9.15356 7.16036 9.06269 7.07558 9.00417C6.98606 8.9471 6.88052 8.92638 6.78081 8.9471C6.69421 8.96455 4.73319 9.39383 4.36671 12.7725C4.3638 12.8179 4.36671 12.8648 4.37544 12.9073C4.64255 14.0193 5.27173 14.9803 5.99621 15.7204C4.94166 16.2758 2.99111 16.1715 2.22693 15.949C3.25857 15.3198 3.5959 14.8112 3.71784 10.1701L3.7181 10.1702Z" fill="#1340AD"/>
<path d="M5.79632 17.7805C6.70133 19.1399 8.4204 20.0734 8.49791 20.116C8.61509 20.1788 8.75591 20.1788 8.87054 20.116C8.94842 20.0749 10.6671 19.1404 11.575 17.7805C12.2424 17.955 13.0448 18.2243 13.7694 18.5424C14.0303 18.3679 14.3076 18.2069 14.5951 18.056C13.2912 17.401 11.7512 17.0128 11.4811 16.9485C11.3185 16.9088 11.1351 16.9837 11.0485 17.1375C10.456 18.188 9.16677 19.0287 8.6857 19.3174C8.20462 19.0288 6.91532 18.188 6.32293 17.1375C6.23632 16.9852 6.05292 16.9088 5.89025 16.9485C5.44884 17.0539 1.58093 18.0207 0.976895 19.6325C0.412123 21.1222 0.019135 24.7557 0.00162126 24.9094C-0.0100235 25.0428 0.0412865 25.1729 0.148271 25.2565C0.255254 25.3401 2.80729 27.3339 8.68427 27.3339C9.41753 27.3339 10.0994 27.303 10.7305 27.2474C10.7538 27.0395 10.7876 26.7697 10.8302 26.4459C10.1715 26.5088 9.4605 26.5484 8.6843 26.5484C3.93509 26.5484 1.45363 25.1769 0.809537 24.7596C0.906338 23.9348 1.25968 21.0984 1.70873 19.9059C2.03587 19.0389 4.28148 18.1774 5.79642 17.7805H5.79632Z" fill="#1340AD"/>
<path d="M8.29202 6.91564H9.07659V5.93419H10.0595V5.15013H9.07659V4.17017H8.29202V5.15013H7.30948V5.93419H8.29202V6.91564Z" fill="#1340AD"/>
</svg>
