<svg width="42" height="42" viewBox="0 0 42 42" fill="none" xmlns="http://www.w3.org/2000/svg">
<path d="M3.5 16.6249C3.50004 14.6776 4.09079 12.776 5.19423 11.1714C6.29768 9.56675 7.8619 8.3346 9.68032 7.63765C11.4987 6.94069 13.4858 6.81173 15.379 7.26778C17.2723 7.72382 18.9826 8.74344 20.2842 10.1919C20.3759 10.29 20.4868 10.3681 20.6099 10.4215C20.733 10.475 20.8658 10.5025 21 10.5025C21.1342 10.5025 21.267 10.475 21.3901 10.4215C21.5132 10.3681 21.6241 10.29 21.7158 10.1919C23.0133 8.73402 24.724 7.70584 26.6204 7.24425C28.5167 6.78266 30.5086 6.90955 32.331 7.60804C34.1535 8.30653 35.7199 9.54349 36.822 11.1543C37.924 12.7651 38.5093 14.6733 38.5 16.6249C38.5 20.6324 35.875 23.6249 33.25 26.2499L23.639 35.5477C23.3129 35.9222 22.9109 36.223 22.4596 36.4302C22.0083 36.6374 21.5181 36.7462 21.0215 36.7493C20.5249 36.7525 20.0334 36.6499 19.5795 36.4485C19.1256 36.247 18.7198 35.9513 18.389 35.5809L8.75 26.2499C6.125 23.6249 3.5 20.6499 3.5 16.6249Z" stroke="#1340AD" stroke-width="2" stroke-linecap="round" stroke-linejoin="round"/>
<path d="M5.63501 22.75H16.625L17.5 21L21 28.875L24.5 16.625L27.125 22.75H36.3475" stroke="#1340AD" stroke-width="2" stroke-linecap="round" stroke-linejoin="round"/>
</svg>
