<svg width="42" height="42" viewBox="0 0 42 42" fill="none" xmlns="http://www.w3.org/2000/svg">
<g clip-path="url(#clip0_70_26)">
<path d="M42 21H36.792C35.8742 20.998 34.9811 21.2967 34.2492 21.8504C33.5172 22.4041 32.9868 23.1823 32.739 24.066L27.804 41.622C27.7722 41.731 27.7059 41.8268 27.615 41.895C27.5241 41.9632 27.4136 42 27.3 42C27.1864 42 27.0759 41.9632 26.985 41.895C26.8941 41.8268 26.8278 41.731 26.796 41.622L15.204 0.378C15.1722 0.26895 15.1059 0.173157 15.015 0.105C14.9241 0.0368433 14.8136 0 14.7 0C14.5864 0 14.4759 0.0368433 14.385 0.105C14.2941 0.173157 14.2278 0.26895 14.196 0.378L9.261 17.934C9.01418 18.8142 8.4869 19.5899 7.75921 20.1432C7.03153 20.6966 6.14317 20.9974 5.229 21H0" stroke="#1340AD" stroke-width="2" stroke-linecap="round" stroke-linejoin="round"/>
</g>
<defs>
<clipPath id="clip0_70_26">
<rect width="42" height="42" fill="white"/>
</clipPath>
</defs>
</svg>
