<svg width="40" height="40" viewBox="0 0 40 40" fill="none" xmlns="http://www.w3.org/2000/svg">
<path d="M19.3844 4.00928H9.54456C9.20489 4.00928 8.92932 4.28485 8.92932 4.62451V9.54459C8.92932 9.70755 8.99432 9.86411 9.10968 9.97946C9.22504 10.0945 9.38129 10.1595 9.54456 10.1595H19.3844C19.5477 10.1595 19.7039 10.0945 19.8193 9.97946C19.9346 9.86411 19.9996 9.70755 19.9996 9.54459V4.62451C19.9996 4.46125 19.9346 4.305 19.8193 4.18964C19.7039 4.07428 19.5477 4.00928 19.3844 4.00928ZM18.7695 8.92935H10.1593V5.23951H18.7695V8.92935Z" fill="#1340AD"/>
<path d="M15.0797 20H8.92944C8.58978 20 8.31451 20.2753 8.31451 20.6149C8.31451 20.9546 8.58978 21.2299 8.92944 21.2299H15.0797C15.4193 21.2299 15.6946 20.9546 15.6946 20.6149C15.6946 20.2753 15.4193 20 15.0797 20Z" fill="#1340AD"/>
<path d="M14.4649 22.4602H8.31494C7.97528 22.4602 7.70001 22.7355 7.70001 23.0751C7.70001 23.4148 7.97528 23.6901 8.31494 23.6901H14.4649C14.8045 23.6901 15.0801 23.4148 15.0801 23.0751C15.0801 22.7355 14.8045 22.4602 14.4649 22.4602Z" fill="#1340AD"/>
<path d="M20 21.2296C20.3396 21.2296 20.6149 20.9543 20.6149 20.6147C20.6149 20.275 20.3396 19.9998 20 19.9998H17.54C17.2003 19.9998 16.9247 20.275 16.9247 20.6147C16.9247 20.9543 17.2003 21.2296 17.54 21.2296H20Z" fill="#1340AD"/>
<path d="M20.6148 22.4602H18.1548C17.8152 22.4602 17.5399 22.7355 17.5399 23.0751C17.5399 23.4148 17.8152 23.6901 18.1548 23.6901H20.6148C20.9545 23.6901 21.2298 23.4148 21.2298 23.0751C21.2298 22.7355 20.9545 22.4602 20.6148 22.4602Z" fill="#1340AD"/>
<path d="M35.3102 7.42496C35.2296 7.26413 34.4456 5.85481 31.685 5.85481C28.9247 5.85481 28.1404 7.2641 28.0598 7.42465L28.0601 7.42495C28.0174 7.5101 27.9951 7.6044 27.9951 7.69992V11.3468C27.9945 11.9639 28.3028 12.54 28.8167 12.8818L29.84 13.5639V16.9248C29.8406 17.3063 29.959 17.6783 30.1793 17.9896C30.3994 18.3008 30.7107 18.5367 31.0701 18.6643V21.2299C31.0698 21.5562 30.9401 21.8687 30.7094 22.0994C30.4787 22.3298 30.1662 22.4595 29.84 22.4601H27.9952C27.669 22.4595 27.3565 22.3298 27.1257 22.0994C26.8953 21.8687 26.7656 21.5562 26.765 21.2299V20.615C26.7644 19.9628 26.505 19.3375 26.0439 18.8764C25.5825 18.415 24.9572 18.1556 24.305 18.155H22.7376L22.4465 16.7958H22.4462C22.3855 16.5122 22.1349 16.3099 21.845 16.3099H18.4709L18.1465 14.3638C18.0974 14.0672 17.8407 13.8499 17.5402 13.8499H16.9252L16.9249 12.6201H21.845C22.0083 12.6201 22.1645 12.5551 22.2799 12.44C22.3952 12.3246 22.4602 12.1681 22.4602 12.0051V2.16528C22.4602 2.00202 22.3952 1.84577 22.2799 1.73041C22.1645 1.61505 22.0083 1.55005 21.845 1.55005H7.08484C6.74517 1.55005 6.4696 1.82562 6.4696 2.16528V12.0051C6.4696 12.1681 6.53461 12.3246 6.64996 12.44C6.76532 12.5551 6.92157 12.6201 7.08484 12.6201H12.0049V13.8499H11.3897C11.0891 13.8499 10.8324 14.0672 10.7833 14.3638L10.4589 16.3099H7.08484C6.79492 16.3099 6.54437 16.5122 6.48364 16.7958L4.63856 25.4059V25.4062C4.5995 25.5878 4.64467 25.7773 4.76155 25.9217C4.87813 26.0663 5.05391 26.1502 5.23976 26.1502H7.08484V31.0703C6.59564 31.0709 6.12656 31.2653 5.78085 31.6114C5.43478 31.9572 5.24038 32.4262 5.23977 32.9154V34.1452C5.23977 34.3872 5.38199 34.6066 5.60263 34.7058C5.29837 35.202 5.17995 35.7904 5.26816 36.3657C5.35666 36.9412 5.64658 37.4665 6.08574 37.8485C6.52519 38.2306 7.08581 38.4442 7.66808 38.4518C8.25035 38.4591 8.81613 38.2599 9.26534 37.8894C9.71426 37.5189 10.0176 37.001 10.1207 36.4282C10.2239 35.8551 10.1207 35.2643 9.82929 34.7601H19.1012C18.8094 35.2642 18.7063 35.8554 18.8094 36.4282C18.9126 37.0013 19.2156 37.5192 19.6648 37.8897C20.114 38.2602 20.6798 38.4595 21.2621 38.4521C21.8443 38.4445 22.405 38.2309 22.8444 37.8488C23.2839 37.4667 23.5735 36.9412 23.662 36.3657C23.7502 35.7904 23.6318 35.202 23.3272 34.7058C23.5479 34.6066 23.6898 34.3872 23.6898 34.1452V32.9154C23.6891 32.4262 23.4948 31.9571 23.1487 31.6114C22.8029 31.2653 22.3338 31.0709 21.8447 31.0703V26.1502H23.6898C23.8756 26.1502 24.0514 26.0663 24.168 25.9217C24.2849 25.7773 24.33 25.5878 24.291 25.4062L23.0007 19.3851H24.3046C24.6309 19.3857 24.9434 19.5154 25.1741 19.7458C25.4045 19.9765 25.5342 20.289 25.5348 20.6153V21.2302C25.5354 21.8824 25.7948 22.5077 26.2559 22.9688C26.7174 23.4302 27.3427 23.6896 27.9949 23.6903H29.8399H29.8396C30.4921 23.6896 31.1174 23.4302 31.5785 22.9688C32.0396 22.5077 32.2991 21.8824 32.2997 21.2302V18.6646C32.6592 18.537 32.9704 18.3011 33.1904 17.9899C33.4108 17.6786 33.5292 17.3066 33.5298 16.9251V13.5642L34.5534 12.8818L34.5531 12.8821C35.067 12.5403 35.3755 11.9641 35.375 11.3471V7.70021C35.375 7.60468 35.3527 7.51039 35.31 7.42525L35.3102 7.42496ZM7.7 2.77988H21.2297V11.39H7.7V2.77988ZM13.235 12.6197H15.695V13.8496H13.235V12.6197ZM11.9109 15.0797H17.0189L17.4288 17.5397H11.501L11.9109 15.0797ZM8.92992 35.9899C8.92992 36.3161 8.80053 36.6289 8.56981 36.8596C8.3391 37.0904 8.02629 37.2198 7.70004 37.2198C7.37381 37.2198 7.061 37.0904 6.83028 36.8596C6.59957 36.6289 6.46986 36.3161 6.46986 35.9899C6.46986 35.6636 6.59957 35.3508 6.83028 35.1201C7.06099 34.8894 7.37379 34.7597 7.70004 34.7597C8.02597 34.7603 8.33878 34.89 8.56918 35.1204C8.79989 35.3511 8.92961 35.6636 8.92992 35.9899ZM21.2299 37.2197C20.9037 37.2197 20.5909 37.0903 20.3602 36.8596C20.1294 36.6289 20 36.3161 20 35.9899C20 35.6636 20.1294 35.3508 20.3602 35.1201C20.5909 34.8894 20.9037 34.7597 21.2299 34.7597C21.5562 34.7597 21.869 34.8894 22.0997 35.1201C22.3304 35.3508 22.4601 35.6636 22.4601 35.9899C22.4595 36.3158 22.3298 36.6286 22.0994 36.859C21.8687 37.0897 21.5562 37.2194 21.2299 37.2197ZM22.4598 32.9146V33.5296L6.46992 33.5299V32.915C6.47053 32.5753 6.74549 32.3003 7.08515 32.2997H21.8453C22.185 32.3003 22.4599 32.5753 22.4605 32.915L22.4598 32.9146ZM12.0051 31.0699H10.7749V28.6099H12.0048L12.0051 31.0699ZM18.155 31.0699H16.9248V28.6099H18.1547L18.155 31.0699ZM20.615 31.0699H19.3848V27.995C19.3848 27.8317 19.3201 27.6754 19.2048 27.5601C19.0894 27.4447 18.9332 27.3797 18.7699 27.3797H16.3099C15.9702 27.3797 15.695 27.6553 15.695 27.995V31.0699H13.235V27.995C13.235 27.8317 13.1703 27.6754 13.0549 27.5601C12.9396 27.4447 12.783 27.3797 12.6201 27.3797H10.1601C9.82039 27.3797 9.54512 27.6553 9.54512 27.995V31.0699H8.31496V26.1498H20.615L20.615 31.0699ZM6.00093 24.92L7.58234 17.5399H10.2538L10.1681 18.0538C10.1385 18.232 10.1888 18.4145 10.3054 18.5525C10.4223 18.6901 10.5941 18.7697 10.7748 18.7697H18.1548C18.3355 18.7697 18.5073 18.6901 18.6242 18.5525C18.7408 18.4145 18.7911 18.232 18.7615 18.0538L18.6758 17.5399H21.3476L22.929 24.92H6.00093ZM31.6845 7.08481C33.2989 7.08481 33.9459 7.65427 34.1445 7.8902V8.96957C32.6208 8.09645 30.7482 8.09645 29.2244 8.96957V7.8902C29.4231 7.6543 30.0701 7.08481 31.6844 7.08481H31.6845ZM33.8708 11.8584L32.5735 12.7232V12.7229C32.4023 12.8371 32.2995 13.029 32.2995 13.2347V16.9246C32.2995 17.2642 32.0242 17.5398 31.6845 17.5398C31.3449 17.5398 31.0696 17.2642 31.0696 16.9246V13.2347C31.0696 13.029 30.9668 12.8371 30.7959 12.7229L29.4986 11.8581C29.3274 11.7443 29.2246 11.5523 29.2246 11.3466V10.4411C29.5944 10.1491 30.5011 9.54482 31.6846 9.54482C32.868 9.54482 33.7747 10.1485 34.1446 10.4411V11.3466C34.1449 11.5523 34.042 11.7443 33.8708 11.8581L33.8708 11.8584Z" fill="#1340AD"/>
</svg>
