<svg width="30" height="30" viewBox="0 0 30 30" fill="none" xmlns="http://www.w3.org/2000/svg">
<path d="M8.05036 1C8.85611 1 12.0791 8.2518 12.0791 9.05755C12.0791 10.6691 9.66187 12.2806 8.85611 13.8921C8.05036 15.5036 9.66187 17.1151 11.2734 18.7266C11.9019 19.3551 14.4964 21.9496 16.1079 21.1439C17.7194 20.3381 19.3309 17.9209 20.9424 17.9209C21.7482 17.9209 29 21.1439 29 21.9496C29 25.1727 26.5827 27.5899 24.1655 28.3957C21.7482 29.2014 20.1367 29.2014 16.9137 28.3957C13.6906 27.5899 11.2734 26.7842 7.2446 22.7554C3.21583 18.7266 2.41007 16.3094 1.60432 13.0863C0.798561 9.86331 0.798561 8.2518 1.60432 5.83453C2.41007 3.41727 4.82734 1 8.05036 1Z" stroke="#1340AD" stroke-width="2" stroke-linecap="round" stroke-linejoin="round"/>
</svg>
