<svg width="35" height="35" viewBox="0 0 35 35" fill="none" xmlns="http://www.w3.org/2000/svg">
<path d="M22.9215 18.6095L19.25 16.4902V8.75C19.25 8.28587 19.0656 7.84075 18.7374 7.51256C18.4093 7.18437 17.9641 7 17.5 7C17.0359 7 16.5908 7.18437 16.2626 7.51256C15.9344 7.84075 15.75 8.28587 15.75 8.75V17.5C15.75 17.8072 15.8309 18.1089 15.9845 18.375C16.1381 18.641 16.359 18.8619 16.625 19.0155L21.1715 21.6405C21.3706 21.7572 21.5908 21.8334 21.8195 21.8647C22.0481 21.8959 22.2807 21.8817 22.5039 21.8227C22.727 21.7637 22.9362 21.6611 23.1196 21.5209C23.3029 21.3808 23.4567 21.2057 23.5721 21.0058C23.6875 20.8059 23.7622 20.5852 23.792 20.3564C23.8217 20.1275 23.8059 19.895 23.7454 19.6723C23.685 19.4496 23.581 19.241 23.4396 19.0586C23.2982 18.8762 23.1221 18.7236 22.9215 18.6095ZM17.5 0C14.0388 0 10.6554 1.02636 7.77753 2.94928C4.89967 4.87221 2.65665 7.60533 1.33212 10.803C0.00758247 14.0007 -0.338976 17.5194 0.336265 20.9141C1.01151 24.3087 2.67822 27.4269 5.12564 29.8744C7.57306 32.3218 10.6913 33.9885 14.0859 34.6637C17.4806 35.339 20.9993 34.9924 24.197 33.6679C27.3947 32.3433 30.1278 30.1003 32.0507 27.2225C33.9736 24.3446 35 20.9612 35 17.5C34.9954 12.8601 33.1501 8.41163 29.8693 5.13075C26.5884 1.84986 22.1399 0.00463292 17.5 0ZM17.5 31.5C14.7311 31.5 12.0243 30.6789 9.72202 29.1406C7.41973 27.6022 5.62532 25.4157 4.56569 22.8576C3.50607 20.2994 3.22882 17.4845 3.76901 14.7687C4.30921 12.053 5.64258 9.55844 7.60051 7.6005C9.55845 5.64257 12.053 4.3092 14.7687 3.76901C17.4845 3.22881 20.2994 3.50606 22.8576 4.56569C25.4157 5.62531 27.6022 7.41973 29.1406 9.72201C30.6789 12.0243 31.5 14.7311 31.5 17.5C31.4954 21.2116 30.0189 24.7699 27.3944 27.3944C24.7699 30.0189 21.2116 31.4954 17.5 31.5Z" fill="#1340AD"/>
</svg>
